<?xml version="1.0" encoding="UTF-8" standalone="no"?>
<!-- Created with Inkscape (http://www.inkscape.org/) -->

<svg
   width="1400mm"
   height="1000mm"
   viewBox="0 0 1400 1000"
   version="1.1"
   id="svg1"
   xml:space="preserve"
   inkscape:version="1.3.2 (091e20e, 2023-11-25)"
   sodipodi:docname="calib_target.svg"
   inkscape:export-filename="calib_target.pdf"
   inkscape:export-xdpi="96"
   inkscape:export-ydpi="96"
   xmlns:inkscape="http://www.inkscape.org/namespaces/inkscape"
   xmlns:sodipodi="http://sodipodi.sourceforge.net/DTD/sodipodi-0.dtd"
   xmlns="http://www.w3.org/2000/svg"
   xmlns:svg="http://www.w3.org/2000/svg"><sodipodi:namedview
     id="namedview1"
     pagecolor="#ffffff"
     bordercolor="#000000"
     borderopacity="0.25"
     inkscape:showpageshadow="2"
     inkscape:pageopacity="0.0"
     inkscape:pagecheckerboard="0"
     inkscape:deskcolor="#d1d1d1"
     inkscape:document-units="mm"
     inkscape:zoom="0.1461705"
     inkscape:cx="2548.3939"
     inkscape:cy="1799.2687"
     inkscape:window-width="1472"
     inkscape:window-height="825"
     inkscape:window-x="0"
     inkscape:window-y="38"
     inkscape:window-maximized="0"
     inkscape:current-layer="layer1" /><defs
     id="defs1" /><g
     inkscape:label="Layer 1"
     inkscape:groupmode="layer"
     id="layer1"><g
       style="shape-rendering:crispEdges"
       id="g1"
       transform="matrix(25,0,0,25,50.397708,49.99998)"><rect
         x="0"
         y="0"
         width="8"
         height="8"
         fill="#000000"
         id="rect1" /><rect
         width="1.5"
         height="1"
         x="5"
         y="1"
         fill="#ffffff"
         id="rect2" /><rect
         width="1"
         height="1.5"
         x="5"
         y="1"
         fill="#ffffff"
         id="rect3" /><rect
         width="1"
         height="1"
         x="6"
         y="1"
         fill="#ffffff"
         id="rect4" /><rect
         width="1"
         height="1.5"
         x="6"
         y="1"
         fill="#ffffff"
         id="rect5" /><rect
         width="1"
         height="1"
         x="1"
         y="2"
         fill="#ffffff"
         id="rect6" /><rect
         width="1"
         height="1.5"
         x="1"
         y="2"
         fill="#ffffff"
         id="rect7" /><rect
         width="1.5"
         height="1"
         x="3"
         y="2"
         fill="#ffffff"
         id="rect8" /><rect
         width="1"
         height="1.5"
         x="3"
         y="2"
         fill="#ffffff"
         id="rect9" /><rect
         width="1.5"
         height="1"
         x="4"
         y="2"
         fill="#ffffff"
         id="rect10" /><rect
         width="1"
         height="1.5"
         x="4"
         y="2"
         fill="#ffffff"
         id="rect11" /><rect
         width="1.5"
         height="1"
         x="5"
         y="2"
         fill="#ffffff"
         id="rect12" /><rect
         width="1"
         height="1.5"
         x="5"
         y="2"
         fill="#ffffff"
         id="rect13" /><rect
         width="1"
         height="1"
         x="6"
         y="2"
         fill="#ffffff"
         id="rect14" /><rect
         width="1"
         height="1"
         x="1"
         y="3"
         fill="#ffffff"
         id="rect15" /><rect
         width="1"
         height="1.5"
         x="1"
         y="3"
         fill="#ffffff"
         id="rect16" /><rect
         width="1.5"
         height="1"
         x="3"
         y="3"
         fill="#ffffff"
         id="rect17" /><rect
         width="1.5"
         height="1"
         x="4"
         y="3"
         fill="#ffffff"
         id="rect18" /><rect
         width="1"
         height="1"
         x="5"
         y="3"
         fill="#ffffff"
         id="rect19" /><rect
         width="1"
         height="1.5"
         x="5"
         y="3"
         fill="#ffffff"
         id="rect20" /><rect
         width="1"
         height="1"
         x="1"
         y="4"
         fill="#ffffff"
         id="rect21" /><rect
         width="1"
         height="1.5"
         x="1"
         y="4"
         fill="#ffffff"
         id="rect22" /><rect
         width="1.5"
         height="1"
         x="5"
         y="4"
         fill="#ffffff"
         id="rect23" /><rect
         width="1"
         height="1.5"
         x="5"
         y="4"
         fill="#ffffff"
         id="rect24" /><rect
         width="1"
         height="1"
         x="6"
         y="4"
         fill="#ffffff"
         id="rect25" /><rect
         width="1"
         height="1"
         x="1"
         y="5"
         fill="#ffffff"
         id="rect26" /><rect
         width="1"
         height="1"
         x="5"
         y="5"
         fill="#ffffff"
         id="rect27" /><rect
         width="1"
         height="1"
         x="2"
         y="6"
         fill="#ffffff"
         id="rect28" /><rect
         width="1"
         height="1"
         x="6"
         y="6"
         fill="#ffffff"
         id="rect29" /></g><g
       style="shape-rendering:crispEdges"
       id="g2"
       transform="matrix(25,0,0,25,1150,49.99998)"><rect
         x="0"
         y="0"
         width="8"
         height="8"
         fill="#000000"
         id="rect1-2" /><rect
         width="1"
         height="1"
         x="4"
         y="1"
         fill="#ffffff"
         id="rect2-3" /><rect
         width="1"
         height="1"
         x="6"
         y="1"
         fill="#ffffff"
         id="rect3-9" /><rect
         width="1"
         height="1.5"
         x="6"
         y="1"
         fill="#ffffff"
         id="rect4-9" /><rect
         width="1.5"
         height="1"
         x="2"
         y="2"
         fill="#ffffff"
         id="rect5-7" /><rect
         width="1"
         height="1"
         x="3"
         y="2"
         fill="#ffffff"
         id="rect6-0" /><rect
         width="1"
         height="1"
         x="6"
         y="2"
         fill="#ffffff"
         id="rect7-3" /><rect
         width="1"
         height="1.5"
         x="6"
         y="2"
         fill="#ffffff"
         id="rect8-9" /><rect
         width="1"
         height="1"
         x="6"
         y="3"
         fill="#ffffff"
         id="rect9-8" /><rect
         width="1.5"
         height="1"
         x="1"
         y="4"
         fill="#ffffff"
         id="rect10-6" /><rect
         width="1"
         height="1.5"
         x="1"
         y="4"
         fill="#ffffff"
         id="rect11-5" /><rect
         width="1.5"
         height="1"
         x="2"
         y="4"
         fill="#ffffff"
         id="rect12-7" /><rect
         width="1.5"
         height="1"
         x="3"
         y="4"
         fill="#ffffff"
         id="rect13-6" /><rect
         width="1"
         height="1.5"
         x="3"
         y="4"
         fill="#ffffff"
         id="rect14-2" /><rect
         width="1.5"
         height="1"
         x="4"
         y="4"
         fill="#ffffff"
         id="rect15-7" /><rect
         width="1"
         height="1"
         x="5"
         y="4"
         fill="#ffffff"
         id="rect16-0" /><rect
         width="1"
         height="1.5"
         x="5"
         y="4"
         fill="#ffffff"
         id="rect17-3" /><rect
         width="1"
         height="1"
         x="1"
         y="5"
         fill="#ffffff"
         id="rect18-9" /><rect
         width="1"
         height="1"
         x="3"
         y="5"
         fill="#ffffff"
         id="rect19-9" /><rect
         width="1"
         height="1.5"
         x="3"
         y="5"
         fill="#ffffff"
         id="rect20-9" /><rect
         width="1.5"
         height="1"
         x="5"
         y="5"
         fill="#ffffff"
         id="rect21-1" /><rect
         width="1"
         height="1"
         x="6"
         y="5"
         fill="#ffffff"
         id="rect22-7" /><rect
         width="1"
         height="1.5"
         x="6"
         y="5"
         fill="#ffffff"
         id="rect23-2" /><rect
         width="1.5"
         height="1"
         x="3"
         y="6"
         fill="#ffffff"
         id="rect24-3" /><rect
         width="1"
         height="1"
         x="4"
         y="6"
         fill="#ffffff"
         id="rect25-6" /><rect
         width="1"
         height="1"
         x="6"
         y="6"
         fill="#ffffff"
         id="rect26-5" /></g><g
       style="shape-rendering:crispEdges"
       id="g3"
       transform="matrix(25,0,0,25,1150,750.00002)"><rect
         x="0"
         y="0"
         width="8"
         height="8"
         fill="#000000"
         id="rect1-5" /><rect
         width="1.5"
         height="1"
         x="1"
         y="1"
         fill="#ffffff"
         id="rect2-8" /><rect
         width="1"
         height="1.5"
         x="1"
         y="1"
         fill="#ffffff"
         id="rect3-1" /><rect
         width="1"
         height="1"
         x="2"
         y="1"
         fill="#ffffff"
         id="rect4-4" /><rect
         width="1"
         height="1"
         x="4"
         y="1"
         fill="#ffffff"
         id="rect5-71" /><rect
         width="1"
         height="1"
         x="6"
         y="1"
         fill="#ffffff"
         id="rect6-3" /><rect
         width="1"
         height="1"
         x="1"
         y="2"
         fill="#ffffff"
         id="rect7-8" /><rect
         width="1.5"
         height="1"
         x="2"
         y="3"
         fill="#ffffff"
         id="rect8-4" /><rect
         width="1"
         height="1.5"
         x="2"
         y="3"
         fill="#ffffff"
         id="rect9-80" /><rect
         width="1.5"
         height="1"
         x="3"
         y="3"
         fill="#ffffff"
         id="rect10-4" /><rect
         width="1.5"
         height="1"
         x="4"
         y="3"
         fill="#ffffff"
         id="rect11-6" /><rect
         width="1"
         height="1.5"
         x="4"
         y="3"
         fill="#ffffff"
         id="rect12-0" /><rect
         width="1.5"
         height="1"
         x="5"
         y="3"
         fill="#ffffff"
         id="rect13-3" /><rect
         width="1"
         height="1.5"
         x="5"
         y="3"
         fill="#ffffff"
         id="rect14-26" /><rect
         width="1"
         height="1"
         x="6"
         y="3"
         fill="#ffffff"
         id="rect15-9" /><rect
         width="1"
         height="1"
         x="2"
         y="4"
         fill="#ffffff"
         id="rect16-4" /><rect
         width="1"
         height="1.5"
         x="2"
         y="4"
         fill="#ffffff"
         id="rect17-1" /><rect
         width="1.5"
         height="1"
         x="4"
         y="4"
         fill="#ffffff"
         id="rect18-3" /><rect
         width="1"
         height="1"
         x="5"
         y="4"
         fill="#ffffff"
         id="rect19-7" /><rect
         width="1.5"
         height="1"
         x="1"
         y="5"
         fill="#ffffff"
         id="rect20-8" /><rect
         width="1.5"
         height="1"
         x="2"
         y="5"
         fill="#ffffff"
         id="rect21-8" /><rect
         width="1"
         height="1.5"
         x="2"
         y="5"
         fill="#ffffff"
         id="rect22-3" /><rect
         width="1"
         height="1"
         x="3"
         y="5"
         fill="#ffffff"
         id="rect23-8" /><rect
         width="1"
         height="1"
         x="2"
         y="6"
         fill="#ffffff"
         id="rect24-1" /><rect
         width="1"
         height="1"
         x="4"
         y="6"
         fill="#ffffff"
         id="rect25-5" /><rect
         width="1"
         height="1"
         x="6"
         y="6"
         fill="#ffffff"
         id="rect26-3" /></g><g
       style="shape-rendering:crispEdges"
       id="g4"
       transform="matrix(25,0,0,25,50.397708,750.00002)"><rect
         x="0"
         y="0"
         width="8"
         height="8"
         fill="#000000"
         id="rect1-54" /><rect
         width="1.5"
         height="1"
         x="1"
         y="1"
         fill="#ffffff"
         id="rect2-36" /><rect
         width="1"
         height="1"
         x="2"
         y="1"
         fill="#ffffff"
         id="rect3-5" /><rect
         width="1"
         height="1.5"
         x="2"
         y="1"
         fill="#ffffff"
         id="rect4-95" /><rect
         width="1"
         height="1"
         x="5"
         y="1"
         fill="#ffffff"
         id="rect5-4" /><rect
         width="1"
         height="1"
         x="2"
         y="2"
         fill="#ffffff"
         id="rect6-9" /><rect
         width="1"
         height="1"
         x="6"
         y="2"
         fill="#ffffff"
         id="rect7-1" /><rect
         width="1"
         height="1"
         x="1"
         y="3"
         fill="#ffffff"
         id="rect8-7" /><rect
         width="1"
         height="1.5"
         x="1"
         y="3"
         fill="#ffffff"
         id="rect9-5" /><rect
         width="1.5"
         height="1"
         x="3"
         y="3"
         fill="#ffffff"
         id="rect10-5" /><rect
         width="1"
         height="1"
         x="4"
         y="3"
         fill="#ffffff"
         id="rect11-4" /><rect
         width="1.5"
         height="1"
         x="1"
         y="4"
         fill="#ffffff"
         id="rect12-1" /><rect
         width="1"
         height="1"
         x="2"
         y="4"
         fill="#ffffff"
         id="rect13-8" /><rect
         width="1"
         height="1.5"
         x="2"
         y="4"
         fill="#ffffff"
         id="rect14-8" /><rect
         width="1.5"
         height="1"
         x="2"
         y="5"
         fill="#ffffff"
         id="rect15-3" /><rect
         width="1"
         height="1.5"
         x="2"
         y="5"
         fill="#ffffff"
         id="rect16-5" /><rect
         width="1"
         height="1"
         x="3"
         y="5"
         fill="#ffffff"
         id="rect17-2" /><rect
         width="1"
         height="1.5"
         x="3"
         y="5"
         fill="#ffffff"
         id="rect18-2" /><rect
         width="1"
         height="1"
         x="5"
         y="5"
         fill="#ffffff"
         id="rect19-6" /><rect
         width="1"
         height="1.5"
         x="5"
         y="5"
         fill="#ffffff"
         id="rect20-6" /><rect
         width="1.5"
         height="1"
         x="2"
         y="6"
         fill="#ffffff"
         id="rect21-7" /><rect
         width="1.5"
         height="1"
         x="3"
         y="6"
         fill="#ffffff"
         id="rect22-8" /><rect
         width="1.5"
         height="1"
         x="4"
         y="6"
         fill="#ffffff"
         id="rect23-4" /><rect
         width="1"
         height="1"
         x="5"
         y="6"
         fill="#ffffff"
         id="rect24-17" /></g><circle
       id="path4"
       style="fill:#000000;stroke:#ffffff;stroke-width:0.264583"
       cx="-2.5910747"
       cy="820.07513"
       r="0.32610583" /><circle
       id="path5"
       style="fill:#000000;stroke:#ffffff;stroke-width:0.264583"
       cx="82.914391"
       cy="818.7796"
       r="0.32610583" /><path
       style="fill:none;stroke:#ffffff;stroke-width:0.499999"
       id="path6"
       d="m 348.15224,503.9796 c -55.06096,27.16511 -110.3023,53.9619 -165.94336,79.91953 -27.10182,12.5008 -54.41344,24.55194 -82.02785,35.87721 0,0 2.95502,1.97155 2.95502,1.97155 v 0 c 27.15169,-11.8046 54.10217,-24.06783 80.90988,-36.6335 55.77046,-26.32728 111.10641,-53.58868 167.3052,-78.9964 z" /><path
       style="fill:none;stroke:#ffffff;stroke-width:0.499999"
       id="path7"
       d="m 98.080744,625.57347 c 53.898356,-0.60383 107.801366,-0.52567 161.702126,-0.45024 34.03022,0.10088 17.97237,0.0416 48.17358,0.17028 0,0 -2.32482,-1.68907 -2.32482,-1.68907 v 0 c -29.8791,0.1288 -13.97751,0.0695 -47.70477,0.17031 -54.31393,0.0763 -108.62996,0.14677 -162.941553,-0.45026 z" /><g
       id="g8-8-2"
       transform="rotate(-90,-449.80116,500)" /></g></svg>
